<?xml version="1.0" encoding="UTF-8"?>
<svg version="1.1" xmlns="http://www.w3.org/2000/svg" width="512" height="512">
<path d="M0 0 C1.98 0 3.96 0 6 0 C6.061875 1.010625 6.12375 2.02125 6.1875 3.0625 C6.86837935 7.60782973 8.76492115 10.76492115 12 14 C16.21722657 17.06379708 20.60905497 18.74010477 25.9140625 18.45703125 C30.81686774 17.38282111 35.36310512 14.84908496 38.6875 11.09375 C40.03747914 8.94021185 40.65184264 7.22226474 41.1875 4.75 C41.455625 3.5125 41.72375 2.275 42 1 C44.31 1 46.62 1 49 1 C49.09796875 1.58007812 49.1959375 2.16015625 49.296875 2.7578125 C50.29110094 7.95178593 51.36105899 11.97801257 55 16 C59.77135401 18.74430819 64.52395374 19.59738686 70 19 C77.66375074 16.6215946 81.19597755 11.80719807 85 5 C86.32 5.33 87.64 5.66 89 6 C89.16435547 6.88751953 89.16435547 6.88751953 89.33203125 7.79296875 C90.80270349 15.12241658 92.68598637 19.58019046 99 24 C101.76219793 24.92073264 103.74737243 25.25624077 106.625 25.375 C107.42164063 25.42398437 108.21828125 25.47296875 109.0390625 25.5234375 C112.14211553 24.97487667 113.96861744 24.02054726 116.68505859 22.46728516 C117.49365326 22.00794586 118.30224792 21.54860657 119.13534546 21.0753479 C119.75068146 20.72048309 120.36601746 20.36561829 121 20 C121.07011436 27.32040564 121.12311818 34.64073658 121.15543652 41.96141243 C121.170963 45.36225536 121.1919563 48.76286531 121.22631836 52.16357422 C121.26309629 56.09088052 121.27981641 60.01786417 121.29296875 63.9453125 C121.30845261 65.1417337 121.32393646 66.33815491 121.33988953 67.5708313 C121.34285136 82.73527614 117.10114839 96.27241613 111 110 C110.34 110 109.68 110 109 110 C108.88527344 110.57363281 108.77054688 111.14726562 108.65234375 111.73828125 C107.94035768 114.20678385 106.93309672 116.01976098 105.5625 118.1875 C105.13066406 118.88230469 104.69882812 119.57710938 104.25390625 120.29296875 C103 122 103 122 101 123 C100.67 123.99 100.34 124.98 100 126 C98.328125 127.6484375 98.328125 127.6484375 96.25 129.375 C93.92484278 131.31854745 91.77473563 133.23782134 89.6875 135.44140625 C86.60128073 138.37959465 83.41570213 140.42934085 79.75 142.5625 C79.08468262 142.95453613 78.41936523 143.34657227 77.73388672 143.75048828 C72.95823694 146.52805545 68.17499964 149.04189203 63 151 C62.31164062 151.27328125 61.62328125 151.5465625 60.9140625 151.828125 C43.01271647 158.41995639 18.6540165 158.71943687 1 151 C2.15968349 147.52094954 2.83747927 147.18861128 5.875 145.375 C6.92300781 144.73691406 6.92300781 144.73691406 7.9921875 144.0859375 C10 143 10 143 13 142 C13 141.01 13 140.02 13 139 C13.598125 138.46375 14.19625 137.9275 14.8125 137.375 C21.31503104 130.31510916 21.33589176 119.08199656 21 110 C20.7305948 106.32587053 20.38999693 102.66318543 20 99 C20.5671875 99.28746094 21.134375 99.57492187 21.71875 99.87109375 C23.9612284 100.98081337 26.21869335 102.03513074 28.5 103.0625 C29.62921875 103.57490234 29.62921875 103.57490234 30.78125 104.09765625 C37.78471411 106.94589605 44.40704785 106.43385939 51.50390625 104.08984375 C57.92060808 101.2881852 61.85636053 97.22044626 64.5 90.75 C67.17926093 82.05728678 67.10404737 73.24243823 63 65 C60.95955036 62.62208021 60.95955036 62.62208021 59 61 C59 60.34 59 59.68 59 59 C57.3369416 58.32438252 55.66905395 57.66066719 54 57 C53.41863281 56.73574219 52.83726562 56.47148437 52.23828125 56.19921875 C44.88206405 53.05081747 38.1937512 52.92818491 30.6875 55.75 C22.94508346 58.97494044 19.69420514 63.61946137 16.16015625 71.00390625 C14.73077539 74.69527028 14.47047898 77.11684584 15 81 C14.01 81 13.02 81 12 81 C11.76925781 80.48050781 11.53851563 79.96101563 11.30078125 79.42578125 C9.10762965 74.73607762 6.79720319 71.59735039 3 68 C2.30419733 66.68163705 1.62775567 65.35208914 1 64 C0.01 63.505 0.01 63.505 -1 63 C-1 62.34 -1 61.68 -1 61 C-1.54269531 60.74347656 -2.08539063 60.48695313 -2.64453125 60.22265625 C-5.4319432 58.77579068 -8.03461915 57.11890336 -10.6875 55.4375 C-18.55955306 50.50923187 -26.76304156 46.28589707 -35 42 C-35.33 32.43 -35.66 22.86 -36 13 C-32.2098314 13.94754215 -30.94304437 14.72151403 -28 17 C-21.57134036 19.14288655 -14.20119872 18.68159945 -8 16 C-8 15.34 -8 14.68 -8 14 C-7.34 14 -6.68 14 -6 14 C-6 13.34 -6 12.68 -6 12 C-5.34 11.67 -4.68 11.34 -4 11 C-3.21984379 9.17489003 -2.52204594 7.31393324 -1.875 5.4375 C-1.52179688 4.42558594 -1.16859375 3.41367188 -0.8046875 2.37109375 C-0.53914063 1.58863281 -0.27359375 0.80617187 0 0 Z " fill="#000000" transform="translate(246,246)"/>
<path d="M0 0 C2 0 2 0 3.40063477 1.3828125 C3.92842529 1.91648437 4.45621582 2.45015625 5 3 C6.71170287 4.02564725 6.71170287 4.02564725 8.58984375 4.875 C31.54580787 16.08086614 31.54580787 16.08086614 36 27 C36.66 27 37.32 27 38 27 C47.41141307 39.8653553 51.07591241 55.25770265 50 71 C49.31702577 74.17465265 48.29275544 77.02787067 47 80 C46.608125 81.051875 46.21625 82.10375 45.8125 83.1875 C42.67221048 88.06036305 38.2200143 90.98249345 33 93.375 C24.54729331 95.13598056 19.1814241 93.67500901 12 89 C8.46598536 86.19341695 5.22270151 83.1560956 2 80 C1.17886719 79.2059375 0.35773438 78.411875 -0.48828125 77.59375 C-8.1923228 70.02840641 -8.1923228 70.02840641 -11 66 C-11 65.34 -11 64.68 -11 64 C-11.66 64 -12.32 64 -13 64 C-14.91847864 61.12228205 -16.50079488 58.11373372 -18 55 C-18.66 55 -19.32 55 -20 55 C-23 49.25 -23 49.25 -23 47 C-23.66 47 -24.32 47 -25 47 C-26.34130761 44.73354942 -27.67316234 42.46239903 -29 40.1875 C-29.3815625 39.54490234 -29.763125 38.90230469 -30.15625 38.24023438 C-33 33.33984375 -33 33.33984375 -33 30 C-32.29875 30.15597656 -31.5975 30.31195313 -30.875 30.47265625 C-22.0554256 32.28210698 -15.15242097 32.52912276 -7 28 C-1.86573508 23.44407756 0.70037438 18.69683406 1.14453125 11.734375 C1.21802053 7.69914543 1.01393511 3.92899856 0 0 Z " fill="#000000" transform="translate(210,296)"/>
<path d="M0 0 C1.19302734 -0.01998047 2.38605469 -0.03996094 3.61523438 -0.06054688 C4.76185547 -0.05990234 5.90847656 -0.05925781 7.08984375 -0.05859375 C8.13906006 -0.06044678 9.18827637 -0.0622998 10.26928711 -0.06420898 C13.83777969 0.57675354 14.83180653 1.61334303 17.0625 4.4375 C17.54351807 7.23431396 17.54351807 7.23431396 17.51660156 10.49121094 C17.51629944 11.71217468 17.51599731 12.93313843 17.51568604 14.19110107 C17.49504089 15.50475647 17.47439575 16.81841187 17.453125 18.171875 C17.44566087 19.53378468 17.43996874 20.89570512 17.43597412 22.25762939 C17.42073092 25.83520368 17.38146181 29.41212422 17.3371582 32.98944092 C17.29617632 36.64261024 17.27795697 40.29588562 17.2578125 43.94921875 C17.2149651 51.1122766 17.14673115 58.27479656 17.0625 65.4375 C16.0725 65.4375 15.0825 65.4375 14.0625 65.4375 C13.65 64.81875 13.2375 64.2 12.8125 63.5625 C9.91459209 60.04361182 6.27439932 59.6995922 1.88671875 59.1796875 C-5.33307141 58.80560511 -10.07231486 61.52737657 -15.9375 65.4375 C-16.00698318 57.40554958 -16.06030239 49.37372455 -16.09293652 41.34154797 C-16.10859859 37.61194945 -16.12984629 33.88255642 -16.16381836 30.15307617 C-16.19639319 26.55450226 -16.21434894 22.95612611 -16.22213173 19.35741615 C-16.22767868 17.98385822 -16.23851052 16.61031122 -16.25469017 15.23683739 C-16.27643676 13.31449293 -16.27772517 11.39194985 -16.27807617 9.46948242 C-16.28473801 8.37472092 -16.29139984 7.27995941 -16.29826355 6.15202332 C-15.9375 3.4375 -15.9375 3.4375 -14.58270264 1.58575439 C-10.66278028 -1.15012019 -4.58990419 -0.02718845 0 0 Z " fill="#000000" transform="translate(269.9375,167.5625)"/>
<path d="M0 0 C1.43085938 -0.00580078 1.43085938 -0.00580078 2.890625 -0.01171875 C4.36789063 0.00568359 4.36789063 0.00568359 5.875 0.0234375 C6.85984375 0.01183594 7.8446875 0.00023437 8.859375 -0.01171875 C9.81328125 -0.00785156 10.7671875 -0.00398437 11.75 0 C12.61367187 0.00338379 13.47734375 0.00676758 14.3671875 0.01025391 C17.53460556 0.50053766 19.31791866 1.46846792 21.875 3.3984375 C22.47627258 5.73332214 22.47627258 5.73332214 22.44262695 8.51245117 C22.4422493 9.55330368 22.44187164 10.59415619 22.44148254 11.66654968 C22.41567612 12.78850235 22.38986969 13.91045502 22.36328125 15.06640625 C22.35620651 16.21635574 22.34913177 17.36630524 22.34184265 18.55110168 C22.31381662 22.2300374 22.25105848 25.9074605 22.1875 29.5859375 C22.16242795 32.07745201 22.13961289 34.56899033 22.11914062 37.06054688 C22.06396289 43.17369464 21.98025343 49.28595803 21.875 55.3984375 C21.25334961 55.08600098 20.63169922 54.77356445 19.99121094 54.45166016 C14.16197845 51.55049392 8.51234467 49.24249545 1.875 50.3984375 C-2.47234789 51.90655656 -6.29987957 53.84835722 -10.125 56.3984375 C-10.2515644 48.90553785 -10.33925223 41.41291277 -10.3996582 33.91918945 C-10.42483408 31.36895446 -10.45897705 28.81879184 -10.50219727 26.26879883 C-10.56271032 22.60740326 -10.59117964 18.94695982 -10.61328125 15.28515625 C-10.63908768 14.1413298 -10.6648941 12.99750336 -10.69148254 11.8190155 C-10.6918602 10.75814224 -10.69223785 9.69726898 -10.69262695 8.60424805 C-10.70373001 7.66937057 -10.71483307 6.7344931 -10.72627258 5.77128601 C-10.125 3.3984375 -10.125 3.3984375 -7.7462616 1.59733582 C-4.93139915 0.3098894 -3.07785959 0.01205878 0 0 Z " fill="#000000" transform="translate(221.125,176.6015625)"/>
<path d="M0 0 C4.5434552 3.06419071 7.0494536 6.62594368 8.6875 11.8125 C8.85307141 14.63629366 8.92103164 17.35578634 8.8828125 20.17578125 C8.8799826 20.96776413 8.87715271 21.75974701 8.87423706 22.57572937 C8.86308863 25.09230999 8.83799422 27.60852789 8.8125 30.125 C8.80246329 31.83658338 8.79333864 33.54817237 8.78515625 35.25976562 C8.76487271 39.44426082 8.72571482 43.62797688 8.6875 47.8125 C-2.2025 47.8125 -13.0925 47.8125 -24.3125 47.8125 C-24.42779711 42.6881842 -24.52716823 37.56843106 -24.5871582 32.44384766 C-24.61218233 30.70378304 -24.64621294 28.96382227 -24.68969727 27.22412109 C-24.7508892 24.71165245 -24.77882959 22.2005822 -24.80078125 19.6875 C-24.82658768 18.91946045 -24.8523941 18.1514209 -24.87898254 17.36010742 C-24.88200834 11.42987057 -23.09743198 7.37985703 -19.3125 2.8125 C-13.48974623 -2.10975487 -7.06412694 -2.53242287 0 0 Z " fill="#000000" transform="translate(278.3125,112.1875)"/>
<path d="M0 0 C4.9303787 3.13827859 8.23346286 6.37541017 10 12 C10.16557141 14.82379366 10.23353164 17.54328634 10.1953125 20.36328125 C10.1924826 21.15526413 10.18965271 21.94724701 10.18673706 22.76322937 C10.17558863 25.27980999 10.15049422 27.79602789 10.125 30.3125 C10.11496329 32.02408338 10.10583864 33.73567237 10.09765625 35.44726562 C10.07737271 39.63176082 10.03821482 43.81547688 10 48 C-0.56 48 -11.12 48 -22 48 C-22.0690497 42.9823883 -22.12872743 37.96643955 -22.16479492 32.94873047 C-22.17983738 31.24359537 -22.20027653 29.53849868 -22.22631836 27.83349609 C-22.26290284 25.37587988 -22.27977173 22.91877731 -22.29296875 20.4609375 C-22.30845261 19.70444916 -22.32393646 18.94796082 -22.33988953 18.16854858 C-22.34165473 12.55731353 -21.11685034 8.54022041 -17.4375 4.125 C-16 3 -16 3 -14 3 C-14 2.34 -14 1.68 -14 1 C-9.33736937 -1.55692648 -4.98693409 -1.56566535 0 0 Z " fill="#000000" transform="translate(319,131)"/>
<path d="M0 0 C1.093125 -0.02449219 2.18625 -0.04898438 3.3125 -0.07421875 C4.364375 -0.07808594 5.41625 -0.08195313 6.5 -0.0859375 C7.4590625 -0.09415527 8.418125 -0.10237305 9.40625 -0.11083984 C12 0.375 12 0.375 14.31933594 1.76416016 C16.95906669 5.86486915 16.49284893 9.83776156 16.390625 14.609375 C16.38496521 15.60253723 16.37930542 16.59569946 16.37347412 17.61895752 C16.35110026 20.78813059 16.30090106 23.9561692 16.25 27.125 C16.22993635 29.27472324 16.21168534 31.42446423 16.1953125 33.57421875 C16.15123239 38.84153229 16.08431033 44.10818509 16 49.375 C15.01 49.87 15.01 49.87 14 50.375 C13.67 49.055 13.34 47.735 13 46.375 C12.01 46.375 11.02 46.375 10 46.375 C10 45.715 10 45.055 10 44.375 C3.72912204 42.96632452 -3.16250893 41.98520846 -9.0625 44.875 C-9.701875 45.37 -10.34125 45.865 -11 46.375 C-11.66 46.375 -12.32 46.375 -13 46.375 C-13.33 47.695 -13.66 49.015 -14 50.375 C-14.66 50.375 -15.32 50.375 -16 50.375 C-16 34.535 -16 18.695 -16 2.375 C-10.58629027 -0.33185487 -5.96700737 0.00703657 0 0 Z " fill="#000000" transform="translate(313,185.625)"/>
<path d="M0 0 C2.99685314 3.57317105 3.60586053 7.36594476 4.390625 11.82421875 C5.32951439 16.71727692 6.55528212 21.5421468 7.76733398 26.37402344 C8.22104677 28.23945101 8.61615606 30.11895265 9 32 C7.32764396 33.67235604 5.12721828 33.52932124 2.88134766 33.90063477 C-3.58264764 34.99220631 -8.54236246 35.88682753 -13 41 C-13.33 41.66 -13.66 42.32 -14 43 C-14.66 43 -15.32 43 -16 43 C-18.04061541 50.17859349 -19.37369729 56.52605426 -19 64 C-19.66 64 -20.32 64 -21 64 C-26.28357413 54.75374527 -27.79982689 45.03337293 -29.54589844 34.66259766 C-29.9781539 32.12809332 -30.43953383 29.60110955 -30.9140625 27.07421875 C-31.19300026 25.57036662 -31.47166156 24.06646317 -31.75 22.5625 C-31.87777832 21.88364746 -32.00555664 21.20479492 -32.13720703 20.50537109 C-32.83249656 16.62211551 -33.12187768 12.94274305 -33 9 C-32.06994141 8.77957031 -32.06994141 8.77957031 -31.12109375 8.5546875 C-23.86825892 6.71772497 -17.08607002 4.1528127 -10.1875 1.3046875 C-3.38350217 -1.4802822 -3.38350217 -1.4802822 0 0 Z " fill="#000000" transform="translate(187,250)"/>
<path d="M0 0 C6.59303774 2.92308509 11.33959018 7.66630265 14.09375 14.33984375 C15.15495183 17.66815858 16.05110253 20.99195601 16.875 24.38671875 C17.1740625 25.61648437 17.473125 26.84625 17.78125 28.11328125 C18.50732257 31.19908968 19.20559773 34.28819765 19.875 37.38671875 C12.39332167 40.76166562 5.18966606 43.84707148 -2.8203125 45.74609375 C-5.14457084 46.30504909 -5.14457084 46.30504909 -7.1796875 47.46484375 C-9.125 48.38671875 -9.125 48.38671875 -13.125 48.38671875 C-13.59946902 46.25588264 -14.07356949 44.12496385 -14.54589844 41.99365234 C-14.91619405 40.32669765 -15.28899729 38.66029675 -15.66503906 36.99462891 C-20.80159838 14.04092508 -20.80159838 14.04092508 -19.125 5.38671875 C-14.81757005 -1.10069099 -7.02515838 -2.02748137 0 0 Z " fill="#000000" transform="translate(165.125,202.61328125)"/>
<path d="M0 0 C5.11513423 2.70801224 10.12696826 6.38090478 12 12 C12.08481773 14.58630224 12.11598229 17.14478056 12.09765625 19.73046875 C12.0962413 20.48088943 12.09482635 21.23131012 12.09336853 22.00447083 C12.0877756 24.3988546 12.07522444 26.79314453 12.0625 29.1875 C12.05748408 30.81184761 12.05292134 32.43619668 12.04882812 34.06054688 C12.0386598 38.04042975 12.01908312 42.02010993 12 46 C1.44 46 -9.12 46 -20 46 C-20.046046 41.26749449 -20.08583042 36.53577412 -20.10986328 31.80322266 C-20.11988763 30.19512287 -20.13351066 28.58704115 -20.15087891 26.97900391 C-20.17528488 24.66043624 -20.18651886 22.34211071 -20.1953125 20.0234375 C-20.20563507 19.31069672 -20.21595764 18.59795593 -20.22659302 17.86361694 C-20.22769014 12.92313717 -19.99520215 8.02404844 -16.37890625 4.35546875 C-15.77949219 3.97003906 -15.18007812 3.58460937 -14.5625 3.1875 C-13.96566406 2.78917969 -13.36882812 2.39085938 -12.75390625 1.98046875 C-8.6918403 -0.29030754 -4.54372103 -0.62195421 0 0 Z " fill="#000000" transform="translate(231,124)"/>
<path d="M0 0 C0.72703125 0.66902344 0.72703125 0.66902344 1.46875 1.3515625 C1.46875 2.3415625 1.46875 3.3315625 1.46875 4.3515625 C2.12875 4.3515625 2.78875 4.3515625 3.46875 4.3515625 C5.90676833 9.71326018 6.04630398 14.5410194 5.46875 20.3515625 C4.03571299 23.62707567 2.23133961 26.06942326 -0.53125 28.3515625 C-1.19125 28.3515625 -1.85125 28.3515625 -2.53125 28.3515625 C-2.53125 29.0115625 -2.53125 29.6715625 -2.53125 30.3515625 C-8.84258228 33.21619975 -15.33180033 33.41804572 -21.90625 31.2265625 C-26.94722983 27.62586262 -30.32909454 23.48255535 -31.53125 17.3515625 C-31.83855952 11.11081526 -30.1369277 6.33679504 -26.46484375 1.30859375 C-18.39994663 -6.8540597 -8.89047245 -5.57364234 0 0 Z " fill="#000000" transform="translate(299.53125,311.6484375)"/>
<path d="M0 0 C4.78855878 2.28071673 7.59544543 5.28667668 10 10 C10.34057617 12.9543457 10.34057617 12.9543457 10.29296875 16.17578125 C10.28172974 17.74066284 10.28172974 17.74066284 10.27026367 19.3371582 C10.24295166 20.649021 10.21563965 21.96088379 10.1875 23.3125 C10.125625 27.499375 10.06375 31.68625 10 36 C0.43 36 -9.14 36 -19 36 C-19.0825 32.184375 -19.165 28.36875 -19.25 24.4375 C-19.30462402 22.65363892 -19.30462402 22.65363892 -19.36035156 20.83374023 C-19.42862224 14.29351897 -18.95322107 10.28294088 -15 5 C-10.2363079 0.68999286 -6.49429986 -1.0433081 0 0 Z " fill="#000000" transform="translate(357,162)"/>
<path d="M0 0 C1.07121094 -0.02578125 2.14242188 -0.0515625 3.24609375 -0.078125 C6.5625 0.25 6.5625 0.25 13.5625 3.25 C13.5625 14.14 13.5625 25.03 13.5625 36.25 C12.9025 36.25 12.2425 36.25 11.5625 36.25 C11.129375 35.610625 10.69625 34.97125 10.25 34.3125 C8.74828487 32.11869199 8.74828487 32.11869199 6.5 31.5 C-0.67023826 30.88976696 -6.02697622 30.49749827 -12.4375 34.25 C-13.4275 34.25 -14.4175 34.25 -15.4375 34.25 C-15.51169134 30.03250781 -15.5661204 25.81536189 -15.60229492 21.59741211 C-15.61737589 20.16277448 -15.6378438 18.72818292 -15.66381836 17.29370117 C-15.70023437 15.23084141 -15.71723243 13.16859142 -15.73046875 11.10546875 C-15.7461792 9.86434326 -15.76188965 8.62321777 -15.77807617 7.34448242 C-15.4375 4.25 -15.4375 4.25 -14.09326172 2.36352539 C-10.09402301 -0.32602456 -4.661243 0.06714876 0 0 Z " fill="#000000" transform="translate(353.4375,204.75)"/>
<path d="M0 0 C3.7094587 2.76052741 5.43995226 5.55657381 6.6875 10 C7.09332395 14.87800389 6.47293856 17.99638406 3.4375 21.875 C2.53 22.57625 1.6225 23.2775 0.6875 24 C-0.055 24.61875 -0.7975 25.2375 -1.5625 25.875 C-5.65231488 27.54810609 -9.10294578 27.23332554 -13.3125 26 C-15.79750557 24.54449674 -17.2930383 23.12302383 -19.3125 21 C-19.3125 20.34 -19.3125 19.68 -19.3125 19 C-19.9725 19 -20.6325 19 -21.3125 19 C-21.33944851 17.04174127 -21.35887218 15.08337774 -21.375 13.125 C-21.38660156 12.03445313 -21.39820313 10.94390625 -21.41015625 9.8203125 C-21.3125 7 -21.3125 7 -20.3125 5 C-19.6525 5 -18.9925 5 -18.3125 5 C-17.9825 4.01 -17.6525 3.02 -17.3125 2 C-12.14896122 -2.35673584 -6.1402204 -1.85365144 0 0 Z " fill="#000000" transform="translate(197.3125,294)"/>
<path d="M0 0 C3.75910443 2.62157984 5.58016342 5.78988281 7.0625 10.0625 C6.95832746 14.95860941 5.11341091 17.85566101 1.75 21.3125 C-1.69048077 23.42370411 -3.95857003 24 -8 24 C-11.25 22.25 -11.25 22.25 -14 20 C-14.598125 19.566875 -15.19625 19.13375 -15.8125 18.6875 C-17.83200367 15.81767899 -17.9421614 13.47031629 -18 10 C-14.86252682 1.39838812 -8.81282693 -1.94298546 0 0 Z " fill="#000000" transform="translate(232,235)"/>
<path d="M0 0 C3.20965715 2.5119056 5.69899744 5.09699231 7 9 C7.32514681 12.90176173 7.35181487 15.79297973 5 19 C1.74663122 21.78860181 -0.80265006 23.26839443 -5.0625 23.4375 C-10.18060671 22.86882148 -12.59422855 21.74509559 -15.8125 17.75 C-17.38686787 14.10409547 -17.61196879 11.94379885 -17 8 C-12.84560629 1.4156779 -7.99528269 -1.40542079 0 0 Z " fill="#000000" transform="translate(275,235)"/>
<path d="M0 0 C5.70218526 4.83446142 5.70218526 4.83446142 6.2734375 8.98828125 C6.46515786 13.37572791 6.50509586 15.3405693 3.75 18.9375 C-1.69879518 23.02409639 -1.69879518 23.02409639 -6.375 22.9375 C-10.89470397 21.76861104 -12.68682794 20.23428701 -16 17 C-17.5547669 13.89046621 -17.28644437 11.43733239 -17 8 C-13.30086032 0.60172064 -8.09751513 -2.35564076 0 0 Z " fill="#000000" transform="translate(318,237)"/>
<path d="M0 0 C3.03722197 2.44298288 4.84424433 4.7663665 7 8 C7.31341877 12.3095081 7.30216314 15.31951913 5 19 C2.56294012 21.05133817 0.09060317 22.23786146 -3 23 C-7.29999224 22.50758153 -10.74436119 21.09868396 -14 18.25 C-15.4079693 15.08206908 -15.87832252 12.46780816 -16 9 C-13.06763489 1.99490557 -7.52156729 -1.79664968 0 0 Z " fill="#000000" transform="translate(357,243)"/>
</svg>
